<svg width="30" height="47" viewBox="0 0 30 47" fill="none" xmlns="http://www.w3.org/2000/svg">
<path d="M5.7764 0V36.2733C5.7764 37.5569 6.08696 38.7785 6.70807 39.9379C7.3706 41.0973 8.19876 42.1118 9.19255 42.9814C10.1863 43.8509 11.3043 44.5342 12.5466 45.0311C13.8302 45.528 15.0932 45.7764 16.3354 45.7764C18.1574 45.7764 19.6894 45.2795 20.9317 44.2857C22.1739 43.2505 23.1884 41.9876 23.9752 40.4969C24.7619 38.9648 25.3209 37.3292 25.6522 35.5901C25.9834 33.8509 26.1491 32.2567 26.1491 30.8075C26.1491 29.2754 25.9627 27.6605 25.5901 25.9627C25.2588 24.265 24.6998 22.7122 23.913 21.3044C23.1263 19.8965 22.0911 18.7371 20.8075 17.8261C19.5652 16.9151 18.0124 16.4596 16.1491 16.4596C14.3271 16.4596 12.7743 16.8116 11.4907 17.5155C10.2484 18.2195 9.00621 19.1718 7.76398 20.3727C8.79917 18.7164 10.1656 17.412 11.8634 16.4596C13.6025 15.5072 15.4451 15.0311 17.3913 15.0311C19.5031 15.0311 21.3458 15.4451 22.9193 16.2733C24.4928 17.06 25.7971 18.1367 26.8323 19.5031C27.9089 20.8696 28.6957 22.4431 29.1925 24.2236C29.7309 25.9627 30 27.8054 30 29.7516C30 31.9876 29.6894 34.1408 29.0683 36.2112C28.4886 38.2402 27.5983 40.0414 26.3975 41.6149C25.1967 43.147 23.6853 44.3892 21.8634 45.3416C20.0414 46.2526 17.9089 46.7081 15.4658 46.7081C13.6025 46.7081 11.7391 46.2733 9.87578 45.4037C8.05383 44.4928 6.45963 43.4369 5.09317 42.236L2.29814 46.5217V8.50932C2.29814 8.13665 2.27743 7.72257 2.23602 7.26708C2.19462 6.77019 2.0911 6.3147 1.92547 5.90062C1.75983 5.44514 1.51139 5.07247 1.18012 4.78261C0.890269 4.49276 0.496894 4.34783 0 4.34783L5.7764 0Z" fill="#D6FF7E"/>
<path d="M6 38.4845C6.91097 40.8447 8.33954 42.8323 10.2857 44.4472C12.2319 46.0207 14.5093 46.8075 17.118 46.8075C17.9876 46.8075 18.9234 45.6242 20 45.5C21.0766 45.3758 21.9834 44.8199 22.8944 44.4472C23.8468 44.0331 24.2609 42.7039 24.882 42C25.5445 41.2547 26.3727 42.501 26.3727 41.3416C26.3727 40.0166 25.8758 38.94 24.882 38.1118C23.8882 37.2422 22.646 36.4762 21.1553 35.8137C19.706 35.1511 18.1118 34.53 16.3727 33.9503C14.6749 33.3706 13.0807 32.6874 11.5901 31.9006C10.1408 31.1139 8.91925 30.1615 7.92547 29.0435C6.93168 27.8841 6.43478 26.4348 6.43478 24.6957C6.43478 23.2464 6.72464 21.9834 7.30435 20.9068C7.88406 19.8302 8.6294 18.94 9.54037 18.236C10.4928 17.4907 11.5901 16.9317 12.8323 16.559C14.0745 16.1863 15.3375 16 16.6211 16C17.2422 16 18.029 16.0621 18.9814 16.1863C19.9337 16.3106 20.9068 16.4969 21.9006 16.7453C22.9358 16.9524 23.9296 17.677 24.882 17.9255C25.8344 18.1739 25.8344 19.4161 26.3727 19.6646L27.118 24.0124C26.7453 22.8944 26.1863 21.8799 25.441 20.9689C24.7371 20.058 23.8882 19.2919 22.8944 18.6708C21.942 18.0083 20.8861 17.4907 19.7267 17.118C18.6087 16.7453 17.4907 16.559 16.3727 16.559C15.5859 16.559 14.7371 16.6832 13.8261 16.9317C12.9151 17.1387 12.0663 17.47 11.2795 17.9255C10.5342 18.381 9.91304 18.9607 9.41615 19.6646C8.91925 20.3271 8.67081 21.1346 8.67081 22.087C8.67081 23.5776 9.1677 24.8199 10.1615 25.8137C11.1553 26.766 12.3768 27.5942 13.8261 28.2981C15.3168 29.0021 16.9317 29.6439 18.6708 30.2236C20.4099 30.8033 22.0041 31.4658 23.4534 32.2112C24.9441 32.9565 26.1863 33.8675 27.1801 34.9441C28.1739 36.0207 27.677 36.4141 27.677 38.1118C27.677 39.7267 27.7805 38.382 27.118 39.5C26.4969 40.5766 25.5031 41.2961 24.882 42C23.8468 42.6625 23.2257 44.1574 21.9006 44.4472C20.5756 44.7371 18.4845 45.8758 17.118 45.8758C15.2961 45.8758 13.7019 45.6861 11.5901 45.3549C9.51967 44.9822 7.73913 42.5383 6 42V38.4845Z" fill="#D6FF7E"/>
</svg>
